<svg version="1" xmlns="http://www.w3.org/2000/svg" width="682.667" height="682.667" viewBox="0 0 512.000000 512.000000"><path d="M145 108.2v33.4l8.6 5c9.6 5.5 10.1 5.7 23.2 13.3l9.2 5.3v178.6l-20.5 11.8-20.5 11.8v66.8l3.3-2c3.1-1.9 25.5-14.9 32.7-19 3.6-2 70.5-40.7 77.5-44.7 2.2-1.3 6.7-3.9 10-5.8 8.6-4.9 10.9-6.2 31.5-18.2 10.2-5.9 20.3-11.7 22.5-12.9 6.1-3.4 48.9-28.1 58.3-33.7 4.5-2.7 8.4-4.9 8.6-4.9.2 0 3.4-1.8 7.1-4.1 3.7-2.2 8.2-4.9 9.9-5.8 10.5-5.9 46.4-26.6 47.9-27.6 1.6-1.1 1.4-1.5-2.6-3.6-3.5-2-18.7-10.7-37-21.3-1.8-1-25.5-14.6-52.7-30.3-27.2-15.7-51.2-29.6-53.2-30.9-2.1-1.3-4-2.4-4.3-2.4-.3 0-2.2-1.1-4.3-2.3-2-1.3-5.7-3.5-8.2-4.9-2.5-1.4-18.7-10.7-36-20.8-17.3-10-34-19.6-37-21.3-3-1.7-8.9-5-13-7.4-4.1-2.4-8.4-4.9-9.5-5.6-1.1-.6-11.7-6.7-23.5-13.5s-23-13.3-24.7-14.4l-3.3-2v33.4zm133.9 110.7c11.3 6.5 22.2 12.8 24.1 13.9 13.3 7.5 35.6 20.5 36.3 21.2.8.7-2.4 2.8-12.4 8.5-6.2 3.5-32.3 18.6-33.9 19.5-2.4 1.6-25 14.4-30.5 17.4-1.1.6-2.3 1.5-2.7 2.1-.4.5-1 .6-1.5.2-.7-.8-1.2-94.7-.4-94.7.2 0 9.7 5.3 21 11.9z"/><path d="M145 254.5c0 55.8.2 101.5.5 101.5.2 0 2.4-1.2 4.8-2.7l4.4-2.6V158l-4.5-2.5c-2.4-1.4-4.6-2.5-4.8-2.5-.2 0-.4 45.7-.4 101.5z"/></svg>